<svg width="17" height="17" viewBox="0 0 17 17" fill="none" xmlns="http://www.w3.org/2000/svg">
  <path
    d="M7.70201 1.05662C8.10211 0.526844 8.89789 0.526843 9.29799 1.05662L11.8343 4.41499C11.954 4.57343 12.1181 4.69266 12.3058 4.7575L16.2835 6.13192C16.911 6.34873 17.1569 7.10556 16.7767 7.64979L14.3665 11.0998C14.2528 11.2626 14.1901 11.4555 14.1864 11.654L14.1085 15.8618C14.0962 16.5256 13.4524 16.9933 12.8173 16.7999L8.79135 15.5737C8.60142 15.5159 8.39858 15.5159 8.20865 15.5737L4.18269 16.7999C3.54761 16.9933 2.90381 16.5256 2.89152 15.8618L2.81357 11.654C2.80989 11.4555 2.74721 11.2626 2.6335 11.0998L0.223274 7.64979C-0.156933 7.10556 0.0889747 6.34873 0.71646 6.13192L4.69424 4.7575C4.8819 4.69266 5.046 4.57343 5.16566 4.415L7.70201 1.05662Z"
    fill="#F5F49E" />
</svg>
