<?xml version="1.0" encoding="UTF-8" standalone="no"?>
<svg
   xmlns:dc="http://purl.org/dc/elements/1.1/"
   xmlns:cc="http://creativecommons.org/ns#"
   xmlns:rdf="http://www.w3.org/1999/02/22-rdf-syntax-ns#"
   xmlns:svg="http://www.w3.org/2000/svg"
   xmlns="http://www.w3.org/2000/svg"
   xmlns:xlink="http://www.w3.org/1999/xlink"
   id="svg1474"
   version="1.1"
   viewBox="0 0 60.173866 12.219076"
   height="12.219076mm"
   width="60.173866mm">
  <defs
     id="defs1468">
    <linearGradient
       id="linearGradient972">
      <stop
         id="stop968"
         offset="0"
         style="stop-color:#000000;stop-opacity:1" />
      <stop
         id="stop970"
         offset="1"
         style="stop-color:#000000;stop-opacity:0" />
    </linearGradient>
    <linearGradient
       id="linearGradient966">
      <stop
         id="stop962"
         offset="0"
         style="stop-color:#000000;stop-opacity:1" />
      <stop
         id="stop964"
         offset="1"
         style="stop-color:#000000;stop-opacity:0" />
    </linearGradient>
    <linearGradient
       id="linearGradient926">
      <stop
         id="stop922"
         offset="0"
         style="stop-color:#000000;stop-opacity:1;" />
      <stop
         id="stop924"
         offset="1"
         style="stop-color:#f62106;stop-opacity:1" />
    </linearGradient>
    <linearGradient
       id="linearGradient1465">
      <stop
         style="stop-color:#000000;stop-opacity:1"
         offset="0"
         id="stop1461" />
      <stop
         style="stop-color:#000000;stop-opacity:0"
         offset="1"
         id="stop1463" />
    </linearGradient>
    <linearGradient
       y2="283.24402"
       x2="1104.4086"
       y1="279.33643"
       x1="1103.4471"
       gradientTransform="translate(-0.98787994,-0.01172853)"
       gradientUnits="userSpaceOnUse"
       id="linearGradient1435"
       xlink:href="#linearGradient1465" />
    <linearGradient
       y2="283.24402"
       x2="1104.4086"
       y1="279.33643"
       x1="1103.4471"
       gradientTransform="translate(13.576959,-3.5485312e-5)"
       gradientUnits="userSpaceOnUse"
       id="linearGradient1450"
       xlink:href="#linearGradient1465" />
    <radialGradient
       r="11.769815"
       fy="118.27587"
       fx="924.50116"
       cy="118.27587"
       cx="924.50116"
       gradientTransform="matrix(0.50909282,0,0,0.45589502,-377.21154,-184.37191)"
       gradientUnits="userSpaceOnUse"
       id="radialGradient4215"
       xlink:href="#linearGradient3449" />
    <linearGradient
       id="linearGradient3449">
      <stop
         id="stop3445"
         offset="0"
         style="stop-color:#d25d5d;stop-opacity:1" />
      <stop
         id="stop3447"
         offset="1"
         style="stop-color:#a42d2d;stop-opacity:1" />
    </linearGradient>
    <linearGradient
       y2="283.24402"
       x2="1104.4086"
       y1="279.33643"
       x1="1103.4471"
       gradientTransform="matrix(1,0,0.07646051,1,-1414.5747,-494.38656)"
       gradientUnits="userSpaceOnUse"
       id="linearGradient887"
       xlink:href="#linearGradient966" />
    <linearGradient
       y2="283.24402"
       x2="1104.4086"
       y1="279.33643"
       x1="1103.4471"
       gradientTransform="matrix(1,0,0.07646051,1,-1429.1404,-494.39825)"
       gradientUnits="userSpaceOnUse"
       id="linearGradient890"
       xlink:href="#linearGradient972" />
    <linearGradient
       y2="-184.7505"
       x2="52.769836"
       y1="-167.61349"
       x1="48.15451"
       gradientTransform="matrix(1,0,0.07646051,1,-357.0789,-27.186076)"
       gradientUnits="userSpaceOnUse"
       id="linearGradient893"
       xlink:href="#linearGradient926" />
  </defs>
  <metadata
     id="metadata1471">
    <rdf:RDF>
      <cc:Work
         rdf:about="">
        <dc:format>image/svg+xml</dc:format>
        <dc:type
           rdf:resource="http://purl.org/dc/dcmitype/StillImage" />
        <dc:title></dc:title>
      </cc:Work>
    </rdf:RDF>
  </metadata>
  <g
     transform="translate(322.17401,218.24202)"
     id="layer1">
    <path
       d="m -278.68986,-212.82803 -0.0308,-0.26459 -0.0414,-0.26458 q 0.18888,-0.0212 0.38997,-0.0212 0.48683,0 0.69351,0.21167 0.20588,0.20108 0.24391,0.6985 0.24681,3.22792 -0.7049,5.03767 -0.33325,0.62441 -0.91715,1.016 -0.57331,0.39158 -1.34589,0.39158 -1.04775,0 -1.62062,-0.5715 -0.57205,-0.56092 -0.62546,-1.25942 -0.0526,-0.68791 0.22357,-1.09008 0.28756,-0.39158 0.75323,-0.39158 0.29633,0 0.56408,0.17991 -0.40733,0.62442 -0.3604,1.23825 0.0979,1.28059 1.12449,1.28059 1.02659,0 1.4635,-1.2065 0.43692,-1.2065 0.3671,-3.3655 -0.32841,0.68791 -0.87239,1.04775 -0.5448,0.34925 -1.16922,0.34925 -0.99483,0 -1.76703,-0.8255 -0.76161,-0.8255 -0.87409,-2.29659 -0.15537,-2.032 0.71559,-3.51366 0.43099,-0.73025 1.16063,-1.15359 0.7394,-0.43391 1.72365,-0.43391 0.98425,0 1.53352,0.53975 0.55905,0.52916 0.61731,1.29116 0.0574,0.75142 -0.35387,1.18534 -0.40155,0.42333 -1.0048,0.42333 -0.87842,0 -1.36985,-0.61383 0.29141,0.0741 0.54541,0.0741 0.60325,0 0.91441,-0.35983 0.32174,-0.35984 0.28613,-0.8255 -0.0364,-0.47625 -0.37738,-0.78317 -0.34178,-0.3175 -0.92386,-0.3175 -0.77259,0 -1.35337,0.70908 -0.57019,0.70909 -0.82141,1.7145 -0.24062,1.00542 -0.15647,2.10609 0.0833,1.09008 0.59677,1.7145 0.52399,0.62441 1.21191,0.62441 0.68791,0 1.15956,-0.61383 0.48142,-0.62442 0.40212,-1.66158 z"
       style="font-style:normal;font-variant:normal;font-weight:normal;font-stretch:normal;font-size:10.58333302px;line-height:1.25;font-family:Merienda;-inkscape-font-specification:Merienda;letter-spacing:0px;word-spacing:0px;fill:#000000;fill-opacity:1;stroke:none;stroke-width:0.26458332"
       id="path875" />
    <path
       d="m -269.96455,-217.6117 q 0.12039,0.1905 0.1659,0.37042 0.0446,0.16933 0.077,0.59266 0.0324,0.42334 -0.134,2.81517 -0.16637,2.39183 -0.0927,3.35492 0.0728,0.9525 0.24771,1.30175 -0.67398,-0.23284 -0.97909,-0.62442 -0.29533,-0.40217 -0.34631,-1.06892 -0.0251,-0.32808 -0.0193,-0.52916 -0.73855,2.10608 -2.49538,2.10608 -0.87842,0 -1.36905,-0.60325 -0.49143,-0.61383 -0.59258,-1.93675 -0.0575,-0.75142 0.0257,-2.70933 0.0937,-1.95792 0.0492,-2.54 -0.0453,-0.59267 -0.186,-0.91017 0.6528,0.23283 0.95628,0.60325 0.30349,0.37042 0.35366,1.02658 0.0494,0.64559 -0.0726,2.0955 -0.1122,1.43934 -0.041,2.37067 0.0712,0.93133 0.39829,1.3335 0.32708,0.40217 0.87742,0.40217 0.5715,0 1.08461,-0.48684 0.65075,-0.62441 0.96646,-2.032 0.18192,-0.80433 0.22962,-1.8415 -0.002,-0.0318 0.0188,-0.0318 0.0317,0 0.1481,0.13759 0.12693,0.13758 0.14809,0.13758 l -0.0443,0.66675 q -0.14225,1.32292 -0.45528,2.21192 0.01,-0.42334 0.0854,-1.51342 0.18362,-2.71992 0.0695,-4.21217 -0.0243,-0.3175 -0.10866,-0.86783 0.80757,0.0423 1.03455,0.381 z m -0.57384,3.29142 -0.007,0.0423 q 0.0106,0 0.007,-0.0423 z"
       style="font-style:normal;font-variant:normal;font-weight:normal;font-stretch:normal;font-size:10.58333302px;line-height:1.25;font-family:Merienda;-inkscape-font-specification:Merienda;letter-spacing:0px;word-spacing:0px;fill:#000000;fill-opacity:1;stroke:none;stroke-width:0.26458332"
       id="path877" />
    <path
       d="m -264.29642,-213.1032 -0.94273,-0.0106 q -0.51858,0 -0.79213,0.0212 -0.0544,1.50284 0.037,2.69875 2.44475,0 3.51055,-0.3175 -0.0272,0.61384 -0.3505,0.9525 -0.31277,0.33867 -0.83135,0.33867 -0.14817,0 -0.92642,-0.0741 -0.76685,-0.0635 -1.48652,-0.0635 -0.71967,0 -1.42882,0.13758 0.058,-0.34925 0.35604,-0.60325 -0.0155,-0.0635 -0.0414,-0.40217 -0.0259,-0.33866 0.11514,-2.50825 -0.29068,0.0741 -0.49586,0.15875 -0.0358,-0.1905 -0.0447,-0.30691 -0.0494,-0.64559 0.59467,-0.80434 0.10746,-1.778 0.0477,-2.83633 -0.27679,-0.0212 -0.4021,-0.13758 -0.11474,-0.11642 -0.1374,-0.41275 -0.0235,-0.30692 0.0434,-0.53975 1.10141,0.14816 2.382,0.14816 1.28058,0 2.42695,-0.23283 -0.0328,0.40217 -0.24617,0.65617 -0.20364,0.24341 -0.69296,0.34925 -0.48932,0.10583 -0.81578,0.127 -0.58863,0.0529 -1.45646,0.0529 0.0185,0.381 -0.11527,2.78342 0.65779,0.0212 0.95412,0.0212 0.93134,0 1.29946,-0.30692 0.0341,0.16933 0.0422,0.27517 0.0639,0.83608 -0.60283,0.83608 z"
       style="font-style:normal;font-variant:normal;font-weight:normal;font-stretch:normal;font-size:10.58333302px;line-height:1.25;font-family:Merienda;-inkscape-font-specification:Merienda;letter-spacing:0px;word-spacing:0px;fill:#000000;fill-opacity:1;stroke:none;stroke-width:0.26458332"
       id="path879" />
    <path
       d="m -307.46489,-209.12388 q -0.9525,0 -1.78968,-1.12183 -0.71842,-0.9525 -1.4992,-2.58234 -1.49147,1.80975 -1.97265,3.683 -0.61519,-0.5715 -0.66132,-1.17475 -0.0469,-0.61383 0.52819,-1.397 0.57511,-0.78316 1.71376,-1.94733 -0.039,-0.0952 -0.2139,-0.4445 -0.1651,-0.35983 -0.21552,-0.46567 -0.0512,-0.11641 -0.20251,-0.43391 -0.15127,-0.3175 -0.22448,-0.4445 -0.0634,-0.13759 -0.2009,-0.41275 -0.13826,-0.28575 -0.22287,-0.42334 -0.0854,-0.14816 -0.21882,-0.37041 -0.12364,-0.23284 -0.22044,-0.39159 -0.2164,-0.33866 -0.45072,-0.635 0.40148,-0.28575 0.7084,-0.28575 0.3175,0 0.57953,0.24342 0.27261,0.24342 0.51746,0.67733 0.36605,0.635 0.74094,1.524 0.38467,0.87842 0.44809,1.016 1.08817,-1.13241 1.68041,-1.9685 0.60202,-0.84666 0.59013,-1.55575 0.27835,0.17992 0.42719,0.46567 0.15943,0.28575 0.17966,0.55033 0.0194,0.254 -0.0955,0.55034 -0.10515,0.28575 -0.39595,0.635 -0.28021,0.34925 -0.53515,0.61383 -0.24435,0.26458 -0.72652,0.74083 -0.48217,0.47625 -0.76642,0.77259 1.41999,3.06916 2.9075,4.52966 -0.16529,0.0529 -0.40871,0.0529 z"
       style="font-style:normal;font-variant:normal;font-weight:normal;font-stretch:normal;font-size:10.58333302px;line-height:1.25;font-family:Merienda;-inkscape-font-specification:Merienda;letter-spacing:0px;word-spacing:0px;fill:#000000;fill-opacity:1;stroke:none;stroke-width:0.26458332"
       id="path872" />
    <path
       d="m -296.97969,-210.18223 q -0.11472,-0.254 -0.14952,-0.70908 -0.0348,-0.45508 0.10138,-2.68817 0.13618,-2.23308 0.0326,-3.58775 -0.0243,-0.3175 -0.10865,-0.86783 0.80757,0.0423 1.03455,0.381 0.1204,0.1905 0.1659,0.37042 0.0446,0.16933 0.0738,0.55033 0.0283,0.37042 -0.13319,2.82575 -0.15173,2.44475 -0.083,3.48192 0.0521,-0.0106 0.18969,-0.0106 2.286,0 3.38356,-0.3175 -0.0272,0.61384 -0.35051,0.9525 -0.31276,0.33867 -0.83135,0.33867 -0.14816,0 -0.92642,-0.0741 -0.76686,-0.0635 -1.48652,-0.0635 -0.71967,0 -1.42882,0.13758 0.10199,-0.46567 0.51648,-0.71967 z"
       style="font-style:normal;font-variant:normal;font-weight:normal;font-stretch:normal;font-size:10.58333302px;line-height:1.25;font-family:Merienda;-inkscape-font-specification:Merienda;letter-spacing:0px;word-spacing:0px;fill:#000000;fill-opacity:1;stroke:none;stroke-width:0.26458332"
       id="path869" />
    <path
       d="m -285.65943,-214.04514 q -0.11895,-1.55575 -0.64942,-2.26483 -0.53047,-0.70908 -1.34539,-0.70908 -0.81491,0 -1.45347,0.64558 -0.63855,0.64558 -0.92394,1.61925 -0.28619,0.96308 -0.20851,1.97908 0.10439,1.36525 0.66897,2.24367 0.57516,0.87841 1.58058,0.87841 0.81492,0 1.38835,-0.66675 0.57344,-0.66675 0.79451,-1.651 0.23167,-0.98425 0.14832,-2.07433 z m 0.148,3.8735 q -0.41543,0.51858 -1.07907,0.83608 -0.65306,0.3175 -1.46798,0.3175 -0.80433,0 -1.45788,-0.381 -0.64296,-0.381 -1.05134,-1.016 -0.82898,-1.29116 -0.95602,-2.95275 -0.12705,-1.66158 0.58914,-2.95275 0.71539,-1.30174 1.98558,-1.71449 0.18315,0.0423 0.21403,0.16933 -0.70604,0.45508 -1.13535,1.06892 -0.41874,0.61383 -0.51854,1.66158 0.34982,-1.23825 1.23752,-1.94733 0.8877,-0.70909 1.91428,-0.70909 1.03717,0 1.82481,0.889 0.79742,0.87842 0.92527,2.55058 0.12462,1.62984 -0.35632,2.95275 -0.2535,0.6985 -0.66813,1.22767 z"
       style="font-style:normal;font-variant:normal;font-weight:normal;font-stretch:normal;font-size:10.58333302px;line-height:1.25;font-family:Merienda;-inkscape-font-specification:Merienda;letter-spacing:0px;word-spacing:0px;fill:url(#linearGradient887);fill-opacity:1;stroke:none;stroke-width:0.26458332"
       id="path866" />
    <path
       d="m -300.22526,-214.05683 q -0.11896,-1.55575 -0.64942,-2.26483 -0.53047,-0.70908 -1.34539,-0.70908 -0.81492,0 -1.45347,0.64558 -0.63856,0.64558 -0.92394,1.61925 -0.2862,0.96308 -0.20852,1.97908 0.10439,1.36525 0.66897,2.24367 0.57517,0.87842 1.58059,0.87842 0.81491,0 1.38835,-0.66675 0.57344,-0.66675 0.79451,-1.651 0.23166,-0.98425 0.14832,-2.07434 z m 0.148,3.8735 q -0.41543,0.51859 -1.07908,0.83609 -0.65305,0.3175 -1.46797,0.3175 -0.80433,0 -1.45788,-0.381 -0.64296,-0.381 -1.05136,-1.016 -0.82897,-1.29117 -0.95601,-2.95275 -0.12705,-1.66159 0.58915,-2.95275 0.71538,-1.30175 1.98558,-1.7145 0.18314,0.0423 0.21402,0.16933 -0.70603,0.45508 -1.13535,1.06892 -0.41873,0.61383 -0.51854,1.66158 0.34982,-1.23825 1.23752,-1.94733 0.88771,-0.70909 1.91429,-0.70909 1.03717,0 1.8248,0.889 0.79741,0.87842 0.92527,2.55059 0.12462,1.62983 -0.35631,2.95275 -0.25351,0.6985 -0.66813,1.22766 z"
       style="font-style:normal;font-variant:normal;font-weight:normal;font-stretch:normal;font-size:10.58333302px;line-height:1.25;font-family:Merienda;-inkscape-font-specification:Merienda;letter-spacing:0px;word-spacing:0px;fill:url(#linearGradient890);fill-opacity:1;stroke:none;stroke-width:0.26458332"
       id="path863" />
    <path
       d="m -318.72624,-209.31438 q -1.17475,0 -2.05192,-0.9525 -0.87716,-0.9525 -1.01634,-2.77283 -0.10277,-1.34409 0.24699,-2.44475 0.34894,-1.11125 1.21628,-1.80975 0.87713,-0.70909 2.04129,-0.70909 1.16417,0 1.73703,0.5715 0.57205,0.56092 0.62789,1.29117 0.0558,0.73025 -0.28059,1.17475 -0.33724,0.43392 -0.92991,0.43392 -0.1905,0 -0.47214,-0.0847 0.22399,-0.254 0.36911,-0.70908 0.1549,-0.46567 0.11929,-0.93134 -0.0356,-0.46566 -0.31469,-0.79375 -0.26931,-0.33866 -0.80906,-0.33866 -0.81491,0 -1.40871,0.67733 -0.58402,0.66675 -0.83685,1.651 -0.24305,0.97367 -0.16375,2.01083 0.11167,1.4605 0.72843,2.19075 0.61594,0.71967 1.50494,0.71967 0.59267,0 1.18957,-0.35983 0.5969,-0.35984 0.94728,-1.03717 0.15875,0 0.30361,0.0952 0.14487,0.0952 0.15215,0.1905 -0.50689,1.12183 -1.37329,1.55575 -0.75404,0.381 -1.52662,0.381 z"
       style="font-style:normal;font-variant:normal;font-weight:normal;font-stretch:normal;font-size:10.58333302px;line-height:1.25;font-family:Merienda;-inkscape-font-specification:Merienda;letter-spacing:0px;word-spacing:0px;fill:url(#linearGradient893);fill-opacity:1;stroke:none;stroke-width:0.26458332"
       id="path860" />
    <path
       id="path4828"
       d="m -314.97658,-218.24202 c 0.0537,0.14817 0.15261,0.39197 0.13384,0.86713 -0.0349,0.88334 -0.12329,1.38185 -0.29662,2.22829 0.52379,-0.16159 1.10933,-1.31051 1.23145,-2.4076 -0.0351,-0.45862 -0.39133,-0.68782 -1.06867,-0.68782 z"
       style="font-style:normal;font-variant:normal;font-weight:normal;font-stretch:normal;font-size:10.58333302px;line-height:1.25;font-family:Merienda;-inkscape-font-specification:Merienda;letter-spacing:0px;word-spacing:0px;fill:#000000;fill-opacity:1;stroke:none;stroke-width:0.26458332" />
  </g>
</svg>
