<?xml version="1.0" encoding="UTF-8" standalone="no"?>
<svg
   xmlns:dc="http://purl.org/dc/elements/1.1/"
   xmlns:cc="http://creativecommons.org/ns#"
   xmlns:rdf="http://www.w3.org/1999/02/22-rdf-syntax-ns#"
   xmlns:svg="http://www.w3.org/2000/svg"
   xmlns="http://www.w3.org/2000/svg"
   xmlns:xlink="http://www.w3.org/1999/xlink"
   width="60.173866mm"
   height="12.219076mm"
   viewBox="0 0 60.173866 12.219076"
   version="1.1"
   id="svg1474">
  <defs
     id="defs1468">
    <linearGradient
       id="linearGradient972">
      <stop
         style="stop-color:#ffffff;stop-opacity:1"
         offset="0"
         id="stop968" />
      <stop
         style="stop-color:#ffffff;stop-opacity:0"
         offset="1"
         id="stop970" />
    </linearGradient>
    <linearGradient
       id="linearGradient966">
      <stop
         style="stop-color:#ffffff;stop-opacity:1"
         offset="0"
         id="stop962" />
      <stop
         style="stop-color:#ffffff;stop-opacity:0"
         offset="1"
         id="stop964" />
    </linearGradient>
    <linearGradient
       id="linearGradient1465">
      <stop
         id="stop1461"
         offset="0"
         style="stop-color:#000000;stop-opacity:1" />
      <stop
         id="stop1463"
         offset="1"
         style="stop-color:#000000;stop-opacity:0" />
    </linearGradient>
    <linearGradient
       xlink:href="#linearGradient1465"
       id="linearGradient1435"
       gradientUnits="userSpaceOnUse"
       gradientTransform="translate(-0.98787994,-0.01172853)"
       x1="1103.4471"
       y1="279.33643"
       x2="1104.4086"
       y2="283.24402" />
    <linearGradient
       xlink:href="#linearGradient1465"
       id="linearGradient1450"
       gradientUnits="userSpaceOnUse"
       gradientTransform="translate(13.576959,-3.5485312e-5)"
       x1="1103.4471"
       y1="279.33643"
       x2="1104.4086"
       y2="283.24402" />
    <radialGradient
       xlink:href="#linearGradient3449"
       id="radialGradient4215"
       gradientUnits="userSpaceOnUse"
       gradientTransform="matrix(0.50909282,0,0,0.45589502,-377.21154,-184.37191)"
       cx="924.50116"
       cy="118.27587"
       fx="924.50116"
       fy="118.27587"
       r="11.769815" />
    <linearGradient
       id="linearGradient3449">
      <stop
         style="stop-color:#d25d5d;stop-opacity:1"
         offset="0"
         id="stop3445" />
      <stop
         style="stop-color:#a42d2d;stop-opacity:1"
         offset="1"
         id="stop3447" />
    </linearGradient>
    <linearGradient
       xlink:href="#linearGradient966"
       id="linearGradient956"
       gradientUnits="userSpaceOnUse"
       gradientTransform="translate(-1071.2866,-276.14454)"
       x1="1103.4471"
       y1="279.33643"
       x2="1104.4086"
       y2="283.24402" />
    <linearGradient
       xlink:href="#linearGradient972"
       id="linearGradient958"
       gradientUnits="userSpaceOnUse"
       gradientTransform="translate(-1085.8514,-276.15623)"
       x1="1103.4471"
       y1="279.33643"
       x2="1104.4086"
       y2="283.24402" />
    <linearGradient
       y2="283.24402"
       x2="1104.4086"
       y1="279.33643"
       x1="1103.4471"
       gradientTransform="matrix(1,0,0.07646051,1,-1092.4008,-276.14454)"
       gradientUnits="userSpaceOnUse"
       id="linearGradient898"
       xlink:href="#linearGradient966" />
    <linearGradient
       y2="283.24402"
       x2="1104.4086"
       y1="279.33643"
       x1="1103.4471"
       gradientTransform="matrix(1,0,0.07646051,1,-1106.9664,-276.15623)"
       gradientUnits="userSpaceOnUse"
       id="linearGradient901"
       xlink:href="#linearGradient972" />
  </defs>
  <metadata
     id="metadata1471">
    <rdf:RDF>
      <cc:Work
         rdf:about="">
        <dc:format>image/svg+xml</dc:format>
        <dc:type
           rdf:resource="http://purl.org/dc/dcmitype/StillImage" />
        <dc:title></dc:title>
      </cc:Work>
    </rdf:RDF>
  </metadata>
  <path
     d="m 43.484168,5.413996 -0.03081,-0.2645833 -0.0414,-0.2645833 q 0.188881,-0.021167 0.389965,-0.021167 0.486833,0 0.693517,0.2116667 0.205875,0.2010833 0.243908,0.6984999 0.246808,3.2279166 -0.704901,5.037667 -0.333256,0.624417 -0.91715,1.016 -0.573309,0.391583 -1.345892,0.391583 -1.04775,0 -1.620614,-0.5715 -0.572054,-0.560916 -0.625462,-1.259416 -0.0526,-0.6879174 0.223568,-1.0900841 0.287559,-0.3915833 0.753226,-0.3915833 0.296333,0 0.56409,0.1799167 -0.40734,0.6244166 -0.360406,1.2382507 0.09791,1.280583 1.124497,1.280583 1.026584,0 1.4635,-1.2065 0.436918,-1.2065004 0.36709,-3.3655003 -0.328402,0.6879166 -0.872389,1.0477499 -0.544796,0.34925 -1.169213,0.34925 -0.994833,0 -1.767034,-0.8254999 -0.761618,-0.8255 -0.874098,-2.2965833 -0.155368,-2.0319999 0.715593,-3.5136666 0.430998,-0.7302499 1.160629,-1.15358327 0.739406,-0.43391665 1.723656,-0.43391665 0.98425,0 1.53352,0.53974998 0.559044,0.52916664 0.617307,1.29116664 0.05745,0.7514166 -0.353869,1.1853333 -0.401549,0.4233333 -1.004799,0.4233333 -0.878417,0 -1.369851,-0.6138333 0.291415,0.074083 0.545415,0.074083 0.60325,0 0.914404,-0.3598333 0.321737,-0.3598333 0.286132,-0.8255 -0.03641,-0.47625 -0.377382,-0.7831666 -0.341776,-0.31750001 -0.923859,-0.31750001 -0.772584,0 -1.353367,0.70908331 -0.570199,0.7090833 -0.821409,1.7145 -0.240625,1.0054166 -0.156467,2.1060832 0.08335,1.0900833 0.596758,1.7145 0.523993,0.6244166 1.21191,0.6244166 0.687916,0 1.159566,-0.6138333 0.481423,-0.6244166 0.402121,-1.6615827 z"
     style="font-style:normal;font-variant:normal;font-weight:normal;font-stretch:normal;font-size:10.58333302px;line-height:1.25;font-family:Merienda;-inkscape-font-specification:Merienda;letter-spacing:0px;word-spacing:0px;fill:#ffffff;fill-opacity:1;stroke:none;stroke-width:0.26458332"
     id="path886" />
  <path
     d="m 52.209472,0.6303295 q 0.120399,0.19049999 0.165906,0.3704167 0.0447,0.1693333 0.07707,0.5926666 0.03237,0.4233333 -0.134001,2.8151666 -0.166369,2.3918332 -0.09273,3.3549166 0.07283,0.9524999 0.247699,1.3017499 Q 51.799441,8.8324126 51.494334,8.4408293 51.199,8.0386626 51.14802,7.3719126 51.122935,7.0438293 51.12873,6.842746 q -0.738551,2.1060833 -2.495385,2.1060833 -0.878416,0 -1.369041,-0.60325 -0.491434,-0.6138333 -0.592585,-1.93675 -0.05745,-0.7514166 0.02568,-2.7093332 0.09371,-1.9579166 0.04921,-2.5399999 -0.04532,-0.5926667 -0.186009,-0.91016669 0.652802,0.23283333 0.956292,0.60324998 0.303488,0.37041661 0.353659,1.02658331 0.04936,0.6455833 -0.07261,2.0954999 -0.112198,1.4393333 -0.04099,2.3706666 0.07121,0.9313333 0.398293,1.3335 0.327084,0.4021666 0.877417,0.4021666 0.5715,0 1.08461,-0.4868333 0.650756,-0.6244166 0.966466,-2.0319999 0.181916,-0.8043333 0.229614,-1.8415 -0.0024,-0.03175 0.01874,-0.03175 0.03175,0 0.148103,0.1375834 0.126937,0.1375833 0.148104,0.1375833 l -0.04427,0.66675 q -0.142273,1.3229166 -0.455299,2.2119166 0.01,-0.4233333 0.08537,-1.5134166 0.183618,-2.7199166 0.06952,-4.2121666 -0.02428,-0.31749997 -0.108685,-0.86783329 0.807571,0.0423333 1.034548,0.38099999 z m -0.573836,3.2914166 -0.0073,0.042333 q 0.01058,0 0.0073,-0.042333 z"
     style="font-style:normal;font-variant:normal;font-weight:normal;font-stretch:normal;font-size:10.58333302px;line-height:1.25;font-family:Merienda;-inkscape-font-specification:Merienda;letter-spacing:0px;word-spacing:0px;fill:#ffffff;fill-opacity:1;stroke:none;stroke-width:0.26458332"
     id="path888" />
  <path
     d="M 57.877603,5.1388294 56.934876,5.128246 q -0.518583,0 -0.792131,0.021167 -0.05443,1.5028333 0.03702,2.6987499 2.44475,0 3.510556,-0.3175 -0.02715,0.6138333 -0.350504,0.9525 -0.312772,0.3386667 -0.831355,0.3386667 -0.148167,0 -0.926415,-0.074083 -0.766855,-0.0635 -1.486522,-0.0635 -0.719667,0 -1.428813,0.1375834 0.05797,-0.34925 0.356041,-0.60325 -0.01543,-0.0635 -0.04133,-0.4021667 -0.02589,-0.3386666 0.115135,-2.5082499 -0.29067,0.074083 -0.495862,0.15875 -0.03574,-0.1905 -0.04464,-0.3069167 -0.04936,-0.6455833 0.594667,-0.8043333 0.107469,-1.7779999 0.04772,-2.8363332 -0.276786,-0.021167 -0.402103,-0.1375834 -0.114735,-0.1164166 -0.137393,-0.41274994 -0.02347,-0.30691666 0.0434,-0.53974999 1.101412,0.14816667 2.381996,0.14816667 1.280583,0 2.426948,-0.23283333 -0.03275,0.40216665 -0.246163,0.65616669 -0.203639,0.2434166 -0.692963,0.3492499 -0.489324,0.1058334 -0.815789,0.127 -0.588621,0.052917 -1.456454,0.052917 0.01855,0.381 -0.115263,2.7834166 0.657786,0.021167 0.954119,0.021167 0.931334,0 1.29945,-0.3069167 0.03412,0.1693333 0.04221,0.2751667 0.06393,0.8360833 -0.602822,0.8360833 z"
     style="font-style:normal;font-variant:normal;font-weight:normal;font-stretch:normal;font-size:10.58333302px;line-height:1.25;font-family:Merienda;-inkscape-font-specification:Merienda;letter-spacing:0px;word-spacing:0px;fill:#ffffff;fill-opacity:1;stroke:none;stroke-width:0.26458332"
     id="path890" />
  <path
     d="m 14.709114,9.1181509 q -0.9525,0 -1.789692,-1.1218333 -0.718412,-0.9525 -1.499197,-2.5823333 -1.4914585,1.80975 -1.9726455,3.6829999 -0.6151971,-0.5715 -0.6613219,-1.17475 Q 8.7393236,7.3084009 9.3144421,6.5252343 9.8895608,5.7420676 11.028215,4.577901 10.989182,4.482651 10.814311,4.133401 10.649215,3.7735677 10.59879,3.6677344 10.547559,3.5513177 10.396278,3.2338177 10.245002,2.9163177 10.171792,2.7893177 10.108355,2.6517344 9.9708997,2.3765677 9.8326344,2.0908177 9.7480314,1.9532344 9.6626195,1.8050677 9.5292092,1.5828178 9.4055733,1.3499844 9.3087685,1.1912344 9.0923739,0.85256778 8.8580494,0.55623445 9.2595342,0.27048446 9.5664508,0.27048446 q 0.3175,0 0.5795282,0.24341666 0.272612,0.24341666 0.517456,0.67733328 0.366053,0.635 0.740942,1.524 0.384664,0.8784166 0.448101,1.016 1.088165,-1.1324167 1.680405,-1.9685 0.602013,-0.84666663 0.590129,-1.55574994 0.27834,0.17991666 0.427188,0.46566665 0.159433,0.28575 0.179663,0.55033329 0.01942,0.254 -0.0955,0.5503333 -0.105152,0.28575 -0.395948,0.635 -0.280212,0.34925 -0.535149,0.6138333 -0.244353,0.2645834 -0.726522,0.7408334 -0.482169,0.4762499 -0.766428,0.7725833 1.420004,3.0691665 2.907507,4.5296665 -0.165287,0.052917 -0.408704,0.052917 z"
     style="font-style:normal;font-variant:normal;font-weight:normal;font-stretch:normal;font-size:10.58333302px;line-height:1.25;font-family:Merienda;-inkscape-font-specification:Merienda;letter-spacing:0px;word-spacing:0px;fill:#ffffff;fill-opacity:1;stroke:none;stroke-width:0.26458332"
     id="path883" />
  <path
     d="m 25.194332,8.0598042 q -0.114671,-0.254 -0.149467,-0.7090833 -0.0348,-0.4550833 0.101377,-2.6881666 0.136175,-2.2330833 0.0326,-3.5877499 -0.02428,-0.31749997 -0.108685,-0.86783329 0.80757,0.0423333 1.034548,0.38099999 0.120399,0.1905 0.165906,0.37041666 0.0447,0.16933334 0.07383,0.55033334 0.02832,0.3704166 -0.133192,2.8257499 -0.15174,2.4447499 -0.08302,3.4819166 0.05211,-0.010583 0.189691,-0.010583 2.286,0 3.383557,-0.3175 -0.02715,0.6138333 -0.350505,0.9525 -0.312772,0.3386667 -0.831355,0.3386667 -0.148167,0 -0.926415,-0.074083 -0.766855,-0.0635 -1.486522,-0.0635 -0.719667,0 -1.428813,0.1375834 0.101978,-0.4656667 0.516474,-0.7196667 z"
     style="font-style:normal;font-variant:normal;font-weight:normal;font-stretch:normal;font-size:10.58333302px;line-height:1.25;font-family:Merienda;-inkscape-font-specification:Merienda;letter-spacing:0px;word-spacing:0px;fill:#ffffff;fill-opacity:1;stroke:none;stroke-width:0.26458332"
     id="path880" />
  <path
     d="M 36.514593,4.1968917 Q 36.39564,2.6411418 35.865173,1.9320585 35.334706,1.2229752 34.519789,1.2229752 q -0.814917,0 -1.453471,0.6455833 -0.638555,0.6455833 -0.923941,1.6192499 -0.286197,0.9630833 -0.208513,1.9790833 0.104388,1.36525 0.668969,2.2436666 0.575164,0.8784166 1.580581,0.8784166 0.814916,0 1.388353,-0.6667499 0.573437,-0.66675 0.794514,-1.651 0.231661,-0.98425 0.148312,-2.0743333 z m 0.148003,3.8734999 q -0.415432,0.5185833 -1.079072,0.8360833 -0.653057,0.3175 -1.467974,0.3175 -0.804333,0 -1.457882,-0.381 -0.642964,-0.381 -1.051349,-1.0159999 -0.828974,-1.2911667 -0.956019,-2.95275 -0.127046,-1.6615832 0.589147,-2.9527499 0.715385,-1.30174992 1.985575,-1.71449991 0.183153,0.0423333 0.214031,0.16933333 -0.706037,0.45508332 -1.135353,1.06891668 -0.418733,0.6138333 -0.518539,1.6615832 0.349823,-1.2382499 1.237523,-1.9473332 0.8877,-0.70908335 1.914283,-0.70908335 1.037167,0 1.824807,0.88899995 0.797414,0.8784167 0.925268,2.5505833 0.124618,1.6298333 -0.356314,2.9527499 -0.253509,0.6985 -0.668132,1.2276666 z"
     style="font-style:normal;font-variant:normal;font-weight:normal;font-stretch:normal;font-size:10.58333302px;line-height:1.25;font-family:Merienda;-inkscape-font-specification:Merienda;letter-spacing:0px;word-spacing:0px;fill:url(#linearGradient898);fill-opacity:1;stroke:none;stroke-width:0.26458332"
     id="path877" />
  <path
     d="M 21.948751,4.1852035 Q 21.829797,2.6294536 21.29933,1.9203702 20.768864,1.2112869 19.953947,1.2112869 q -0.814917,0 -1.453472,0.6455833 -0.638555,0.6455834 -0.923941,1.61925 -0.286196,0.9630833 -0.208512,1.9790833 0.104387,1.3652499 0.668969,2.2436666 0.575164,0.8784166 1.580581,0.8784166 0.814916,0 1.388353,-0.66675 0.573437,-0.66675 0.794513,-1.6509999 0.231661,-0.98425 0.148313,-2.0743333 z m 0.148003,3.8734999 q -0.415432,0.5185833 -1.079073,0.8360833 -0.653057,0.3175 -1.467974,0.3175 -0.804333,0 -1.457881,-0.381 -0.642965,-0.381 -1.051351,-1.016 -0.828973,-1.2911666 -0.956019,-2.9527499 -0.127045,-1.6615833 0.589148,-2.9527499 0.715385,-1.30174995 1.985576,-1.71449994 0.183153,0.0423333 0.21403,0.16933333 -0.706037,0.45508332 -1.135353,1.06891661 -0.418733,0.6138333 -0.518539,1.6615833 0.349823,-1.23825 1.237523,-1.9473333 0.887701,-0.70908328 1.914284,-0.70908328 1.037167,0 1.824806,0.88899998 0.797414,0.8784166 0.925269,2.5505832 0.124618,1.6298333 -0.356314,2.95275 -0.25351,0.6984999 -0.668132,1.2276666 z"
     style="font-style:normal;font-variant:normal;font-weight:normal;font-stretch:normal;font-size:10.58333302px;line-height:1.25;font-family:Merienda;-inkscape-font-specification:Merienda;letter-spacing:0px;word-spacing:0px;fill:url(#linearGradient901);fill-opacity:1;stroke:none;stroke-width:0.26458332"
     id="path874" />
  <path
     d="m 3.4477773,8.9276509 q -1.17475,0 -2.0519119,-0.9525 Q 0.51870345,7.0226509 0.37951984,5.2023176 0.27675055,3.8582344 0.62650966,2.7575677 0.97545958,1.6463178 1.8428019,0.94781777 2.7199184,0.23873446 3.884085,0.23873446 q 1.1641666,0 1.7370304,0.57149998 Q 6.19317,1.3711511 6.2490053,2.1014011 6.3048406,2.831651 5.9684107,3.276151 5.6311715,3.7100677 5.0385049,3.7100677 q -0.1905,0 -0.4721404,-0.084667 0.2239957,-0.254 0.3691164,-0.7090833 Q 5.0903758,2.4506508 5.0547707,1.9849841 5.0191656,1.5193175 4.7400802,1.1912341 4.4707689,0.85256748 3.9310189,0.85256748 q -0.8149167,0 -1.4087107,0.67733332 -0.5840199,0.66675 -0.836847,1.6509999 -0.243053,0.9736667 -0.1637507,2.0108333 0.1116706,1.4605 0.7284226,2.1907499 0.6159427,0.7196667 1.5049427,0.7196667 0.5926667,0 1.1895702,-0.3598333 0.5969037,-0.3598334 0.947281,-1.0371667 0.15875,0 0.3036162,0.09525 0.1448663,0.09525 0.1521491,0.1905 -0.5068907,1.1218333 -1.3732965,1.55575 -0.7540352,0.381 -1.5266185,0.3810003 z"
     style="font-style:normal;font-variant:normal;font-weight:normal;font-stretch:normal;font-size:10.58333302px;line-height:1.25;font-family:Merienda;-inkscape-font-specification:Merienda;letter-spacing:0px;word-spacing:0px;fill:#ffffff;fill-opacity:1;stroke:none;stroke-width:0.26458332"
     id="path871" />
  <path
     id="path4828"
     d="M 7.1974305,3.559069e-6 C 7.2510933,0.14817022 7.3500343,0.39196789 7.3312727,0.86713309 7.2963979,1.7504657 7.2079768,2.248983 7.0346509,3.0954221 7.5584386,2.9338279 8.14398,1.7849145 8.2660985,0.68781703 8.2310333,0.22920151 7.8747639,3.559069e-6 7.1974305,3.559069e-6 Z"
     style="font-style:normal;font-variant:normal;font-weight:normal;font-stretch:normal;font-size:10.58333302px;line-height:1.25;font-family:Merienda;-inkscape-font-specification:Merienda;letter-spacing:0px;word-spacing:0px;fill:#ffffff;fill-opacity:1;stroke:none;stroke-width:0.26458332" />
</svg>
